<svg width="389" height="206" viewBox="0 0 389 206" fill="none" xmlns="http://www.w3.org/2000/svg">
<path d="M33.7701 18.0002C34.1333 17.9991 34.4965 17.998 34.8707 17.9969C35.4731 17.9981 35.4731 17.9981 36.0878 17.9992C36.5083 17.9986 36.9287 17.9979 37.3619 17.9972C38.7594 17.9956 40.1569 17.9967 41.5544 17.998C42.5208 17.9977 43.4871 17.9973 44.4534 17.9969C46.4817 17.9963 48.51 17.9971 50.5383 17.9989C52.8864 18.0009 55.2344 18.0003 57.5825 17.9982C59.8373 17.9963 62.0921 17.9965 64.3469 17.9976C65.3083 17.9978 66.2697 17.9975 67.2311 17.9966C68.5721 17.9957 69.9132 17.9971 71.2542 17.9992C71.6558 17.9985 72.0575 17.9977 72.4713 17.9969C72.8345 17.998 73.1977 17.9991 73.5719 18.0002C73.8894 18.0003 74.2068 18.0004 74.5339 18.0006C75.254 18.0479 75.254 18.0479 75.636 18.4239C75.6738 19.2251 75.684 20.0276 75.6841 20.8297C75.6846 21.0852 75.6852 21.3408 75.6857 21.604C75.6872 22.471 75.6858 23.3379 75.6845 24.2049C75.6849 24.8284 75.6855 25.452 75.6863 26.0755C75.6879 27.7973 75.6871 29.5191 75.6859 31.2409C75.6851 33.0945 75.6864 34.9481 75.6875 36.8017C75.6892 40.4363 75.6888 44.0708 75.6877 47.7054C75.6868 50.6578 75.6867 53.6103 75.6871 56.5627C75.6872 56.9821 75.6872 57.4014 75.6873 57.8335C75.6874 58.6852 75.6875 59.537 75.6877 60.3887C75.6888 68.3857 75.6875 76.3826 75.6854 84.3796C75.6837 91.2494 75.684 98.1192 75.6858 104.989C75.6878 112.956 75.6886 120.924 75.6875 128.891C75.6873 129.74 75.6872 130.588 75.6871 131.437C75.687 132.064 75.687 132.064 75.6869 132.703C75.6866 135.653 75.6872 138.604 75.6881 141.555C75.6891 145.148 75.6888 148.742 75.6868 152.335C75.6858 154.17 75.6854 156.005 75.6867 157.841C75.6878 159.518 75.6872 161.195 75.6852 162.872C75.6847 163.482 75.6849 164.092 75.6859 164.701C75.687 165.524 75.6859 166.347 75.6841 167.17C75.684 167.629 75.6839 168.088 75.6839 168.56C75.636 169.576 75.636 169.576 75.254 169.952C74.6943 169.989 74.1328 169.999 73.5719 170C73.2087 170.001 72.8455 170.002 72.4713 170.003C71.8688 170.002 71.8688 170.002 71.2542 170.001C70.6235 170.002 70.6235 170.002 69.98 170.003C68.5825 170.004 67.1851 170.003 65.7876 170.002C64.8212 170.002 63.8549 170.002 62.8886 170.003C60.8603 170.003 58.832 170.003 56.8037 170.001C54.4556 169.999 52.1076 170 49.7595 170.002C47.5047 170.004 45.2499 170.003 42.9951 170.002C42.0337 170.002 41.0723 170.002 40.1109 170.003C38.7698 170.004 37.4288 170.003 36.0878 170.001C35.6861 170.001 35.2845 170.002 34.8707 170.003C34.3259 170.001 34.3259 170.001 33.7701 170C33.4526 170 33.1352 169.999 32.8081 169.999C32.088 169.952 32.088 169.952 31.706 169.576C31.6682 168.775 31.658 167.972 31.6579 167.17C31.6574 166.915 31.6568 166.659 31.6562 166.396C31.6548 165.529 31.6562 164.662 31.6575 163.795C31.657 163.171 31.6564 162.548 31.6557 161.924C31.6541 160.203 31.6549 158.481 31.6561 156.759C31.6569 154.905 31.6556 153.052 31.6545 151.198C31.6528 147.564 31.6532 143.929 31.6543 140.294C31.6552 137.342 31.6553 134.39 31.6549 131.437C31.6548 130.808 31.6548 130.808 31.6547 130.166C31.6546 129.315 31.6545 128.463 31.6543 127.611C31.6532 119.614 31.6545 111.617 31.6565 103.62C31.6583 96.7504 31.658 89.8805 31.6562 83.0107C31.6542 75.0434 31.6533 67.0761 31.6545 59.1089C31.6546 58.2602 31.6548 57.4114 31.6549 56.5627C31.6549 56.1451 31.655 55.7275 31.6551 55.2972C31.6554 52.3464 31.6548 49.3957 31.6539 46.4449C31.6529 42.8516 31.6531 39.2582 31.6552 35.6649C31.6562 33.8296 31.6566 31.9944 31.6553 30.1591C31.6542 28.4819 31.6548 26.8046 31.6568 25.1274C31.6573 24.5178 31.657 23.9083 31.6561 23.2988C31.655 22.4757 31.6561 21.6527 31.6579 20.8297C31.658 20.3709 31.658 19.9121 31.6581 19.4394C31.7356 17.7972 32.2634 18.0008 33.7701 18.0002Z" fill="white"/>
<path d="M85.3113 98.0596C85.7997 98.0556 85.7997 98.0556 86.2979 98.0516C87.3598 98.045 88.4216 98.0426 89.4835 98.042C90.0221 98.0416 90.0221 98.0416 90.5717 98.0412C95.7232 98.047 100.772 98.1117 105.814 99.264C106.223 99.3548 106.223 99.3548 106.639 99.4474C115.68 101.546 124.361 106.138 131.211 112.283C131.799 112.808 132.395 113.321 132.993 113.834C135.543 116.043 137.753 118.407 139.812 121.072C139.973 121.275 140.134 121.479 140.299 121.688C144.796 127.383 148.383 133.625 151.272 140.248C151.374 140.48 151.475 140.713 151.58 140.952C154.449 147.65 156.037 154.849 157.551 161.938C157.65 162.398 157.749 162.858 157.851 163.332C158.705 167.463 158.705 167.463 158.53 169.576C157.864 170.231 156.998 169.999 156.111 170.002C155.669 170.001 155.669 170.001 155.219 170C154.753 170.001 154.753 170.001 154.278 170.002C153.229 170.003 152.181 170.002 151.132 170.001C150.384 170.001 149.636 170.002 148.887 170.003C146.849 170.004 144.81 170.004 142.772 170.002C140.643 170.002 138.515 170.002 136.387 170.003C132.812 170.004 129.237 170.003 125.662 170.001C121.522 169.999 117.383 170 113.243 170.002C109.696 170.003 106.149 170.004 102.602 170.003C100.48 170.002 98.3585 170.002 96.2369 170.003C94.2428 170.004 92.2487 170.004 90.2546 170.001C89.5205 170.001 88.7864 170.001 88.0523 170.002C87.0546 170.003 86.057 170.002 85.0593 170C84.6177 170.001 84.6177 170.001 84.1672 170.002C82.1736 169.995 82.1736 169.995 81.748 169.576C81.7098 168.659 81.6967 167.753 81.6995 166.835C81.6989 166.545 81.6983 166.255 81.6977 165.956C81.6962 164.976 81.6974 163.996 81.6986 163.016C81.6981 162.316 81.6974 161.617 81.6965 160.917C81.6948 159.012 81.6955 157.106 81.6967 155.2C81.6977 153.211 81.6968 151.221 81.6962 149.232C81.6955 145.89 81.6964 142.548 81.6982 139.206C81.7003 135.337 81.6996 131.468 81.6975 127.598C81.6958 124.282 81.6955 120.966 81.6965 117.651C81.6971 115.667 81.6972 113.684 81.6959 111.701C81.6948 109.837 81.6956 107.973 81.6978 106.109C81.6983 105.423 81.6982 104.737 81.6973 104.05C81.6963 103.118 81.6976 102.185 81.6995 101.253C81.6986 100.977 81.6978 100.702 81.6969 100.419C81.7082 97.6034 82.7703 98.0729 85.3113 98.0596Z" fill="white"/>
<path d="M131.307 18.0112C132.105 18.0119 132.904 18.0124 133.702 18.0128C135.789 18.0142 137.877 18.0179 139.964 18.0221C142.1 18.026 144.236 18.0277 146.372 18.0295C150.552 18.0336 154.732 18.04 158.912 18.0479C158.858 18.9344 158.803 19.8207 158.746 20.7071C158.715 21.2007 158.684 21.6943 158.653 22.2029C158.469 24.4206 158.078 26.5817 157.647 28.7639C157.518 29.4274 157.518 29.4274 157.386 30.1042C155.854 37.8364 153.576 45.3427 149.758 52.2931C149.362 53.0164 148.977 53.745 148.592 54.4744C145.14 60.8895 140.587 66.4663 135.42 71.6189C134.929 72.1095 134.446 72.6088 133.966 73.1099C133.318 73.6959 133.318 73.6959 132.554 73.6959C132.554 73.9441 132.554 74.1922 132.554 74.4479C131.797 75.1092 131.039 75.7217 130.238 76.3279C129.996 76.5121 129.754 76.6963 129.504 76.886C117.051 86.2471 103.004 91.4884 87.2631 91.3914C86.7267 91.3895 86.1902 91.3878 85.6538 91.3863C84.3518 91.3819 83.0499 91.3757 81.748 91.3679C81.7391 86.2067 81.7323 81.0455 81.7282 75.8844C81.7262 73.4874 81.7235 71.0905 81.7192 68.6936C81.715 66.3776 81.7127 64.0615 81.7118 61.7455C81.7111 60.8648 81.7097 59.9842 81.7076 59.1035C81.6824 47.9339 82.6787 39.8931 90.916 31.5839C91.1627 31.3134 91.4094 31.043 91.6636 30.7643C101.63 20.121 117.48 17.9752 131.307 18.0112Z" fill="white"/>
<path d="M33.7702 18.0003C34.1333 17.9993 34.4965 17.9982 34.8707 17.9971C35.4732 17.9983 35.4732 17.9983 36.0879 17.9994C36.5083 17.9988 36.9288 17.9981 37.362 17.9974C38.7595 17.9958 40.157 17.9969 41.5545 17.9982C42.5208 17.9979 43.4872 17.9975 44.4535 17.9971C46.4818 17.9965 48.5101 17.9973 50.5384 17.9991C52.8865 18.0011 55.2345 18.0005 57.5826 17.9984C59.8374 17.9965 62.0922 17.9967 64.347 17.9978C65.3084 17.998 66.2698 17.9977 67.2312 17.9968C68.5722 17.9959 69.9132 17.9973 71.2542 17.9994C71.6559 17.9987 72.0576 17.9979 72.4714 17.9971C72.8346 17.9982 73.1978 17.9993 73.5719 18.0003C73.8894 18.0005 74.2069 18.0006 74.534 18.0008C75.2541 18.0481 75.2541 18.0481 75.6361 18.4241C75.6738 19.2253 75.684 20.0278 75.6841 20.8299C75.6847 21.0854 75.6852 21.3409 75.6858 21.6042C75.6872 22.4712 75.6859 23.3381 75.6846 24.2051C75.685 24.8286 75.6856 25.4521 75.6864 26.0757C75.688 27.7975 75.6872 29.5193 75.686 31.2411C75.6851 33.0947 75.6865 34.9483 75.6875 36.8019C75.6892 40.4365 75.6888 44.071 75.6877 47.7056C75.6869 50.658 75.6868 53.6105 75.6872 56.5629C75.6872 56.9823 75.6873 57.4016 75.6874 57.8337C75.6875 58.6854 75.6876 59.5372 75.6877 60.3889C75.6888 68.3859 75.6876 76.3828 75.6855 84.3798C75.6838 91.2496 75.6841 98.1194 75.6859 104.989C75.6879 112.957 75.6887 120.924 75.6875 128.891C75.6874 129.74 75.6873 130.589 75.6872 131.437C75.6871 132.064 75.6871 132.064 75.687 132.703C75.6867 135.654 75.6872 138.604 75.6881 141.555C75.6892 145.148 75.6889 148.742 75.6869 152.335C75.6859 154.17 75.6855 156.006 75.6867 157.841C75.6879 159.518 75.6873 161.195 75.6852 162.873C75.6848 163.482 75.685 164.092 75.6859 164.701C75.6871 165.524 75.6859 166.347 75.6841 167.17C75.6841 167.629 75.684 168.088 75.6839 168.561C75.6361 169.576 75.6361 169.576 75.2541 169.952C74.6935 169.988 74.1311 169.998 73.5694 169.997C73.2056 169.998 72.8419 169.998 72.4672 169.999C71.8638 169.997 71.8638 169.997 71.2482 169.995C70.8271 169.995 70.406 169.995 69.9722 169.995C68.5728 169.995 67.1735 169.992 65.7742 169.989C64.8069 169.988 63.8397 169.988 62.8724 169.987C60.582 169.986 58.2916 169.983 56.0012 169.979C53.3942 169.975 50.7872 169.973 48.1802 169.971C42.8162 169.967 37.4521 169.96 32.0881 169.952C31.899 169.394 31.899 169.394 31.7061 168.824C53.0732 169.01 53.0732 169.01 74.8721 169.2C74.8721 119.568 74.8721 69.9361 74.8721 18.8001C60.8794 18.8001 46.8867 18.8001 32.4701 18.8001C32.344 19.1723 32.2179 19.5446 32.0881 19.9281C31.8732 19.1996 31.8732 19.1996 31.7061 18.4241C32.312 17.8277 32.9296 18.0007 33.7702 18.0003Z" fill="white"/>
<path d="M131.307 18.0112C132.105 18.0119 132.904 18.0124 133.702 18.0128C135.789 18.0142 137.877 18.0179 139.964 18.0221C142.1 18.026 144.236 18.0277 146.372 18.0295C150.552 18.0336 154.732 18.04 158.912 18.0479C158.858 18.9344 158.803 19.8207 158.746 20.7071C158.715 21.2007 158.684 21.6943 158.653 22.2029C158.469 24.4206 158.078 26.5817 157.647 28.7639C157.518 29.4274 157.518 29.4274 157.386 30.1042C155.854 37.8364 153.576 45.3427 149.758 52.2931C149.362 53.0164 148.977 53.745 148.592 54.4744C145.14 60.8895 140.587 66.4663 135.42 71.6189C134.929 72.1095 134.446 72.6088 133.966 73.1099C133.318 73.6959 133.318 73.6959 132.554 73.6959C132.554 73.9441 132.554 74.1922 132.554 74.4479C131.797 75.1092 131.039 75.7217 130.238 76.3279C129.996 76.5121 129.754 76.6963 129.504 76.886C117.051 86.2471 103.004 91.4884 87.2631 91.3914C86.7267 91.3895 86.1902 91.3878 85.6538 91.3863C84.3518 91.3819 83.0499 91.3757 81.748 91.3679C81.7391 86.2067 81.7323 81.0455 81.7282 75.8844C81.7262 73.4874 81.7235 71.0905 81.7192 68.6936C81.715 66.3776 81.7127 64.0615 81.7118 61.7455C81.7111 60.8648 81.7097 59.9842 81.7076 59.1035C81.6824 47.9339 82.6787 39.8931 90.916 31.5839C91.1627 31.3134 91.4094 31.043 91.6636 30.7643C101.63 20.121 117.48 17.9752 131.307 18.0112ZM90.916 32.3359C90.5393 32.6645 90.5393 32.6645 90.155 32.9998C85.9394 36.7858 83.0405 42.559 82.512 48.1279C82.4601 49.5393 82.4637 50.9493 82.4686 52.3615C82.4686 52.7799 82.4685 53.1984 82.4685 53.6296C82.4687 55.0069 82.4717 56.3841 82.4747 57.7614C82.4754 58.7187 82.4759 59.676 82.4763 60.6332C82.4776 62.8916 82.4806 65.15 82.4845 67.4083C82.4888 69.9808 82.4909 72.5532 82.4928 75.1257C82.4968 80.4144 82.5035 85.7032 82.512 90.9919C83.549 90.9953 84.5861 90.9978 85.6231 90.9997C86.0604 91.0013 86.0604 91.0013 86.5065 91.0029C88.6987 91.006 90.8599 90.9128 93.0409 90.6864C93.3773 90.6526 93.7138 90.6189 94.0604 90.5841C111.888 88.6935 128.522 79.9383 139.877 66.1787C149.567 54.1421 155.007 40.8947 157.503 25.8029C157.602 25.2096 157.602 25.2096 157.702 24.6043C158.011 22.6399 158.159 20.7916 158.148 18.7999C153.299 18.7648 148.451 18.7382 143.602 18.722C141.35 18.7142 139.097 18.7036 136.845 18.6864C134.665 18.6699 132.486 18.6611 130.306 18.6572C129.481 18.6545 128.656 18.6491 127.83 18.6409C113.8 18.507 101.114 22.6783 90.916 32.3359Z" fill="white"/>
<path d="M85.3113 98.0596C85.7997 98.0556 85.7997 98.0556 86.2979 98.0516C87.3598 98.045 88.4216 98.0426 89.4835 98.042C90.0221 98.0416 90.0221 98.0416 90.5717 98.0412C95.7232 98.047 100.772 98.1117 105.814 99.264C106.223 99.3548 106.223 99.3548 106.639 99.4474C115.587 101.524 127.555 106.566 132.936 114.304C131.735 113.78 130.936 113.159 129.999 112.259C116.55 100.302 100.044 99.2714 82.512 98.888C82.512 122.091 82.512 145.294 82.512 169.2C107.346 169.2 132.18 169.2 157.766 169.2C157.64 167.711 157.514 166.222 157.384 164.688C157.636 164.812 157.888 164.936 158.148 165.064C158.595 166.56 158.591 168.026 158.53 169.576C157.864 170.231 156.998 169.999 156.111 170.002C155.669 170.001 155.669 170.001 155.219 170C154.753 170.001 154.753 170.001 154.278 170.002C153.229 170.003 152.181 170.002 151.132 170.001C150.384 170.001 149.636 170.002 148.887 170.003C146.849 170.004 144.81 170.004 142.772 170.002C140.643 170.002 138.515 170.002 136.387 170.003C132.812 170.004 129.237 170.003 125.662 170.001C121.522 169.999 117.383 170 113.243 170.002C109.696 170.003 106.149 170.004 102.602 170.003C100.48 170.002 98.3585 170.002 96.2369 170.003C94.2428 170.004 92.2487 170.004 90.2546 170.001C89.5205 170.001 88.7864 170.001 88.0523 170.002C87.0546 170.003 86.057 170.002 85.0593 170C84.6177 170.001 84.6177 170.001 84.1672 170.002C82.1736 169.995 82.1736 169.995 81.748 169.576C81.7098 168.659 81.6967 167.753 81.6995 166.835C81.6989 166.545 81.6983 166.255 81.6977 165.956C81.6962 164.976 81.6974 163.996 81.6986 163.016C81.6981 162.316 81.6974 161.617 81.6965 160.917C81.6948 159.012 81.6955 157.106 81.6967 155.2C81.6977 153.211 81.6968 151.221 81.6962 149.232C81.6955 145.89 81.6964 142.548 81.6982 139.206C81.7003 135.337 81.6996 131.468 81.6975 127.598C81.6958 124.282 81.6955 120.966 81.6965 117.651C81.6971 115.667 81.6972 113.684 81.6959 111.701C81.6948 109.837 81.6956 107.973 81.6978 106.109C81.6983 105.423 81.6982 104.737 81.6973 104.05C81.6963 103.118 81.6976 102.185 81.6995 101.253C81.6986 100.977 81.6978 100.702 81.6969 100.419C81.7082 97.6034 82.7703 98.0729 85.3113 98.0596Z" fill="white"/>
<path d="M31.7061 168.824C46.203 168.824 60.6999 168.824 75.6361 168.824C75.51 169.196 75.3839 169.568 75.2541 169.952C61.0093 169.952 46.7645 169.952 32.0881 169.952C31.962 169.58 31.8359 169.207 31.7061 168.824Z" fill="white"/>
<path d="M195.861 60.9091V170H166.457V60.9091H195.861ZM250.047 171.491C241.311 171.491 233.782 169.822 227.461 166.484C221.176 163.111 216.329 158.281 212.92 151.996C209.546 145.675 207.859 138.111 207.859 129.304C207.859 120.852 209.564 113.466 212.973 107.145C216.382 100.824 221.194 95.9055 227.408 92.3899C233.623 88.8743 240.956 87.1165 249.407 87.1165C255.586 87.1165 261.18 88.0753 266.187 89.9929C271.194 91.9105 275.473 94.6982 279.024 98.3558C282.575 101.978 285.309 106.381 287.227 111.566C289.145 116.751 290.104 122.592 290.104 129.091V135.909H217.021V119.716H263.044C263.008 117.372 262.405 115.312 261.233 113.537C260.096 111.726 258.552 110.323 256.599 109.329C254.681 108.299 252.497 107.784 250.047 107.784C247.667 107.784 245.483 108.299 243.495 109.329C241.506 110.323 239.908 111.708 238.701 113.484C237.529 115.259 236.907 117.337 236.836 119.716V137.188C236.836 139.815 237.387 142.159 238.488 144.219C239.589 146.278 241.169 147.894 243.229 149.066C245.288 150.238 247.774 150.824 250.686 150.824C252.71 150.824 254.557 150.54 256.226 149.972C257.93 149.403 259.386 148.587 260.594 147.521C261.801 146.42 262.689 145.107 263.257 143.58H290.104C289.18 149.261 286.996 154.197 283.552 158.388C280.107 162.543 275.544 165.774 269.862 168.082C264.216 170.355 257.611 171.491 250.047 171.491ZM341.52 171.491C332.642 171.491 325.042 169.734 318.721 166.218C312.4 162.667 307.553 157.731 304.179 151.41C300.806 145.053 299.119 137.685 299.119 129.304C299.119 120.923 300.806 113.572 304.179 107.251C307.553 100.895 312.4 95.9588 318.721 92.4432C325.042 88.892 332.642 87.1165 341.52 87.1165C350.397 87.1165 357.997 88.892 364.318 92.4432C370.639 95.9588 375.486 100.895 378.86 107.251C382.233 113.572 383.92 120.923 383.92 129.304C383.92 137.685 382.233 145.053 378.86 151.41C375.486 157.731 370.639 162.667 364.318 166.218C357.997 169.734 350.397 171.491 341.52 171.491ZM341.733 149.759C344.218 149.759 346.367 148.924 348.178 147.255C349.989 145.586 351.392 143.207 352.386 140.117C353.38 137.028 353.877 133.352 353.877 129.091C353.877 124.794 353.38 121.119 352.386 118.065C351.392 114.975 349.989 112.596 348.178 110.927C346.367 109.258 344.218 108.423 341.733 108.423C339.105 108.423 336.85 109.258 334.968 110.927C333.086 112.596 331.647 114.975 330.653 118.065C329.659 121.119 329.162 124.794 329.162 129.091C329.162 133.352 329.659 137.028 330.653 140.117C331.647 143.207 333.086 145.586 334.968 147.255C336.85 148.924 339.105 149.759 341.733 149.759Z" fill="white"/>
</svg>
