<svg width="191" height="188" viewBox="0 0 191 188" fill="none" xmlns="http://www.w3.org/2000/svg">
<path d="M33.7701 18.0002C34.1333 17.9992 34.4965 17.9981 34.8707 17.997C35.4731 17.9982 35.4731 17.9982 36.0878 17.9993C36.5083 17.9987 36.9287 17.998 37.3619 17.9973C38.7594 17.9957 40.1569 17.9968 41.5544 17.9981C42.5208 17.9978 43.4871 17.9974 44.4534 17.997C46.4817 17.9964 48.51 17.9972 50.5383 17.999C52.8864 18.001 55.2344 18.0004 57.5825 17.9983C59.8373 17.9964 62.0921 17.9966 64.3469 17.9977C65.3083 17.9979 66.2697 17.9976 67.2311 17.9967C68.5721 17.9958 69.9132 17.9972 71.2542 17.9993C71.6558 17.9986 72.0575 17.9978 72.4713 17.997C72.8345 17.9981 73.1977 17.9992 73.5719 18.0002C73.8894 18.0004 74.2068 18.0005 74.5339 18.0007C75.254 18.048 75.254 18.048 75.636 18.424C75.6738 19.2252 75.684 20.0277 75.6841 20.8298C75.6846 21.0853 75.6852 21.3408 75.6857 21.6041C75.6872 22.4711 75.6858 23.338 75.6845 24.205C75.6849 24.8285 75.6855 25.452 75.6863 26.0756C75.6879 27.7974 75.6871 29.5192 75.6859 31.241C75.6851 33.0946 75.6864 34.9482 75.6875 36.8018C75.6892 40.4364 75.6888 44.0709 75.6877 47.7055C75.6868 50.6579 75.6867 53.6104 75.6871 56.5628C75.6872 56.9822 75.6872 57.4015 75.6873 57.8336C75.6874 58.6853 75.6875 59.5371 75.6877 60.3888C75.6888 68.3858 75.6875 76.3827 75.6854 84.3797C75.6837 91.2495 75.684 98.1193 75.6858 104.989C75.6878 112.956 75.6886 120.924 75.6875 128.891C75.6873 129.74 75.6872 130.588 75.6871 131.437C75.687 132.064 75.687 132.064 75.6869 132.703C75.6866 135.653 75.6872 138.604 75.6881 141.555C75.6891 145.148 75.6888 148.742 75.6868 152.335C75.6858 154.17 75.6854 156.006 75.6867 157.841C75.6878 159.518 75.6872 161.195 75.6852 162.873C75.6847 163.482 75.6849 164.092 75.6859 164.701C75.687 165.524 75.6859 166.347 75.6841 167.17C75.684 167.629 75.6839 168.088 75.6839 168.561C75.636 169.576 75.636 169.576 75.254 169.952C74.6943 169.989 74.1328 169.999 73.5719 170C73.2087 170.001 72.8455 170.002 72.4713 170.003C71.8688 170.002 71.8688 170.002 71.2542 170.001C70.6235 170.002 70.6235 170.002 69.98 170.003C68.5825 170.004 67.1851 170.003 65.7876 170.002C64.8212 170.002 63.8549 170.003 62.8886 170.003C60.8603 170.004 58.832 170.003 56.8037 170.001C54.4556 169.999 52.1076 170 49.7595 170.002C47.5047 170.004 45.2499 170.003 42.9951 170.002C42.0337 170.002 41.0723 170.002 40.1109 170.003C38.7698 170.004 37.4288 170.003 36.0878 170.001C35.6861 170.001 35.2845 170.002 34.8707 170.003C34.3259 170.001 34.3259 170.001 33.7701 170C33.4526 170 33.1352 169.999 32.8081 169.999C32.088 169.952 32.088 169.952 31.706 169.576C31.6682 168.775 31.658 167.972 31.6579 167.17C31.6574 166.915 31.6568 166.659 31.6562 166.396C31.6548 165.529 31.6562 164.662 31.6575 163.795C31.657 163.171 31.6564 162.548 31.6557 161.924C31.6541 160.203 31.6549 158.481 31.6561 156.759C31.6569 154.905 31.6556 153.052 31.6545 151.198C31.6528 147.564 31.6532 143.929 31.6543 140.295C31.6552 137.342 31.6553 134.39 31.6549 131.437C31.6548 130.808 31.6548 130.808 31.6547 130.166C31.6546 129.315 31.6545 128.463 31.6543 127.611C31.6532 119.614 31.6545 111.617 31.6565 103.62C31.6583 96.7505 31.658 89.8806 31.6562 83.0108C31.6542 75.0435 31.6533 67.0762 31.6545 59.1089C31.6546 58.2602 31.6548 57.4115 31.6549 56.5628C31.6549 56.1452 31.655 55.7276 31.6551 55.2973C31.6554 52.3465 31.6548 49.3957 31.6539 46.445C31.6529 42.8517 31.6531 39.2583 31.6552 35.665C31.6562 33.8297 31.6566 31.9945 31.6553 30.1592C31.6542 28.4819 31.6548 26.8047 31.6568 25.1275C31.6573 24.5179 31.657 23.9084 31.6561 23.2988C31.655 22.4758 31.6561 21.6528 31.6579 20.8298C31.658 20.371 31.658 19.9122 31.6581 19.4394C31.7356 17.7972 32.2634 18.0009 33.7701 18.0002Z" fill="#ECA406"/>
<path d="M85.3113 98.0596C85.7997 98.0557 85.7997 98.0557 86.2979 98.0516C87.3598 98.045 88.4216 98.0427 89.4835 98.042C90.0221 98.0416 90.0221 98.0416 90.5717 98.0412C95.7232 98.0471 100.772 98.1117 105.814 99.264C106.223 99.3548 106.223 99.3548 106.639 99.4474C115.68 101.546 124.361 106.138 131.211 112.283C131.799 112.808 132.395 113.321 132.993 113.834C135.543 116.043 137.753 118.407 139.812 121.072C139.973 121.275 140.134 121.479 140.299 121.688C144.796 127.383 148.383 133.625 151.272 140.248C151.374 140.48 151.475 140.713 151.58 140.952C154.449 147.65 156.037 154.849 157.551 161.939C157.65 162.398 157.749 162.858 157.851 163.332C158.705 167.463 158.705 167.463 158.53 169.576C157.864 170.231 156.998 169.999 156.111 170.002C155.669 170.001 155.669 170.001 155.219 170C154.753 170.001 154.753 170.001 154.278 170.002C153.229 170.003 152.181 170.002 151.132 170.001C150.384 170.001 149.636 170.002 148.887 170.003C146.849 170.004 144.81 170.004 142.772 170.003C140.643 170.002 138.515 170.002 136.387 170.003C132.812 170.004 129.237 170.003 125.662 170.001C121.522 169.999 117.383 170 113.243 170.002C109.696 170.003 106.149 170.004 102.602 170.003C100.48 170.002 98.3585 170.002 96.2369 170.003C94.2428 170.004 92.2487 170.004 90.2546 170.001C89.5205 170.001 88.7864 170.001 88.0523 170.002C87.0546 170.003 86.057 170.002 85.0593 170C84.6177 170.001 84.6177 170.001 84.1672 170.002C82.1736 169.995 82.1736 169.995 81.748 169.576C81.7098 168.659 81.6967 167.753 81.6995 166.835C81.6989 166.545 81.6983 166.255 81.6977 165.956C81.6962 164.976 81.6974 163.996 81.6986 163.016C81.6981 162.316 81.6974 161.617 81.6965 160.917C81.6948 159.012 81.6955 157.106 81.6967 155.2C81.6977 153.211 81.6968 151.221 81.6962 149.232C81.6955 145.89 81.6964 142.548 81.6982 139.206C81.7003 135.337 81.6996 131.468 81.6975 127.598C81.6958 124.282 81.6955 120.966 81.6965 117.651C81.6971 115.667 81.6972 113.684 81.6959 111.701C81.6948 109.837 81.6956 107.973 81.6978 106.109C81.6983 105.423 81.6982 104.737 81.6973 104.05C81.6963 103.118 81.6976 102.185 81.6995 101.253C81.6986 100.977 81.6978 100.702 81.6969 100.419C81.7082 97.6034 82.7703 98.073 85.3113 98.0596Z" fill="#ECA406"/>
<path d="M131.307 18.0113C132.105 18.012 132.904 18.0125 133.702 18.0129C135.789 18.0143 137.877 18.018 139.964 18.0222C142.1 18.026 144.236 18.0277 146.372 18.0296C150.552 18.0336 154.732 18.0401 158.912 18.048C158.858 18.9345 158.803 19.8208 158.746 20.7072C158.715 21.2008 158.684 21.6944 158.653 22.2029C158.469 24.4207 158.078 26.5818 157.647 28.764C157.518 29.4275 157.518 29.4275 157.386 30.1043C155.854 37.8365 153.576 45.3428 149.758 52.2932C149.362 53.0165 148.977 53.7451 148.592 54.4745C145.14 60.8896 140.587 66.4664 135.42 71.619C134.929 72.1096 134.446 72.6089 133.966 73.11C133.318 73.696 133.318 73.696 132.554 73.696C132.554 73.9442 132.554 74.1923 132.554 74.448C131.797 75.1093 131.039 75.7218 130.238 76.328C129.996 76.5122 129.754 76.6964 129.504 76.8861C117.051 86.2472 103.004 91.4885 87.2631 91.3915C86.7267 91.3896 86.1902 91.3879 85.6538 91.3864C84.3518 91.382 83.0499 91.3758 81.748 91.368C81.7391 86.2068 81.7323 81.0456 81.7282 75.8845C81.7262 73.4875 81.7235 71.0906 81.7192 68.6937C81.715 66.3777 81.7127 64.0616 81.7118 61.7455C81.7111 60.8649 81.7097 59.9842 81.7076 59.1036C81.6824 47.934 82.6787 39.8932 90.916 31.584C91.1627 31.3135 91.4094 31.0431 91.6636 30.7644C101.63 20.1211 117.48 17.9753 131.307 18.0113Z" fill="#ECA406"/>
<path d="M33.7701 18.0003C34.1333 17.9992 34.4965 17.9981 34.8706 17.997C35.4731 17.9982 35.4731 17.9982 36.0878 17.9993C36.5083 17.9987 36.9287 17.998 37.3619 17.9973C38.7594 17.9957 40.1569 17.9968 41.5544 17.9981C42.5208 17.9978 43.4871 17.9974 44.4534 17.997C46.4817 17.9964 48.51 17.9972 50.5383 17.999C52.8864 18.001 55.2344 18.0004 57.5825 17.9983C59.8373 17.9964 62.0921 17.9966 64.3469 17.9977C65.3083 17.9979 66.2697 17.9976 67.2311 17.9968C68.5721 17.9958 69.9132 17.9972 71.2542 17.9993C71.6558 17.9986 72.0575 17.9978 72.4713 17.997C72.8345 17.9981 73.1977 17.9992 73.5719 18.0003C73.8894 18.0004 74.2068 18.0005 74.5339 18.0007C75.254 18.048 75.254 18.048 75.636 18.424C75.6738 19.2252 75.684 20.0277 75.6841 20.8298C75.6846 21.0853 75.6852 21.3409 75.6858 21.6041C75.6872 22.4711 75.6858 23.338 75.6845 24.205C75.6849 24.8285 75.6856 25.4521 75.6863 26.0756C75.6879 27.7974 75.6871 29.5192 75.6859 31.241C75.6851 33.0946 75.6864 34.9482 75.6875 36.8018C75.6892 40.4364 75.6888 44.0709 75.6877 47.7055C75.6868 50.6579 75.6867 53.6104 75.6871 56.5628C75.6872 56.9822 75.6872 57.4015 75.6873 57.8336C75.6874 58.6853 75.6875 59.5371 75.6877 60.3888C75.6888 68.3858 75.6875 76.3827 75.6854 84.3797C75.6837 91.2495 75.684 98.1194 75.6858 104.989C75.6878 112.956 75.6886 120.924 75.6875 128.891C75.6874 129.74 75.6872 130.588 75.6871 131.437C75.687 132.064 75.687 132.064 75.6869 132.703C75.6866 135.653 75.6872 138.604 75.6881 141.555C75.6891 145.148 75.6888 148.742 75.6868 152.335C75.6858 154.17 75.6854 156.006 75.6867 157.841C75.6878 159.518 75.6872 161.195 75.6852 162.873C75.6847 163.482 75.685 164.092 75.6859 164.701C75.687 165.524 75.6859 166.347 75.6841 167.17C75.684 167.629 75.6839 168.088 75.6839 168.561C75.636 169.576 75.636 169.576 75.254 169.952C74.6934 169.988 74.1311 169.998 73.5693 169.997C73.2056 169.998 72.8419 169.998 72.4671 169.999C71.8637 169.997 71.8637 169.997 71.2481 169.995C70.827 169.995 70.406 169.995 69.9721 169.995C68.5728 169.995 67.1735 169.992 65.7741 169.989C64.8069 169.988 63.8396 169.987 62.8724 169.987C60.582 169.986 58.2915 169.983 56.0011 169.979C53.3941 169.975 50.7871 169.973 48.1802 169.971C42.8161 169.967 37.452 169.96 32.088 169.952C31.8989 169.394 31.8989 169.394 31.706 168.824C53.0732 169.01 53.0732 169.01 74.872 169.2C74.872 119.568 74.872 69.936 74.872 18.8C60.8793 18.8 46.8867 18.8 32.47 18.8C32.3439 19.1722 32.2179 19.5445 32.088 19.928C31.8731 19.1995 31.8731 19.1995 31.706 18.424C32.3119 17.8276 32.9296 18.0006 33.7701 18.0003Z" fill="#ECA406"/>
<path d="M131.307 18.0113C132.105 18.012 132.904 18.0125 133.702 18.0129C135.789 18.0143 137.877 18.018 139.964 18.0222C142.1 18.026 144.236 18.0277 146.372 18.0296C150.552 18.0336 154.732 18.0401 158.912 18.048C158.858 18.9345 158.803 19.8208 158.746 20.7072C158.715 21.2008 158.684 21.6944 158.653 22.2029C158.469 24.4207 158.078 26.5818 157.647 28.764C157.518 29.4275 157.518 29.4275 157.386 30.1043C155.854 37.8365 153.576 45.3428 149.758 52.2932C149.362 53.0165 148.977 53.7451 148.592 54.4745C145.14 60.8896 140.587 66.4664 135.42 71.619C134.929 72.1096 134.446 72.6089 133.966 73.11C133.318 73.696 133.318 73.696 132.554 73.696C132.554 73.9442 132.554 74.1923 132.554 74.448C131.797 75.1093 131.039 75.7218 130.238 76.328C129.996 76.5122 129.754 76.6964 129.504 76.8861C117.051 86.2472 103.004 91.4885 87.2631 91.3915C86.7267 91.3896 86.1902 91.3879 85.6538 91.3864C84.3518 91.382 83.0499 91.3758 81.748 91.368C81.7391 86.2068 81.7323 81.0456 81.7282 75.8845C81.7262 73.4875 81.7235 71.0906 81.7192 68.6937C81.715 66.3777 81.7127 64.0616 81.7118 61.7455C81.7111 60.8649 81.7097 59.9842 81.7076 59.1036C81.6824 47.934 82.6787 39.8932 90.916 31.584C91.1627 31.3135 91.4094 31.0431 91.6636 30.7644C101.63 20.1211 117.48 17.9753 131.307 18.0113ZM90.916 32.336C90.5393 32.6646 90.5393 32.6646 90.155 32.9999C85.9394 36.7859 83.0405 42.5591 82.512 48.128C82.4601 49.5394 82.4637 50.9494 82.4686 52.3616C82.4686 52.78 82.4685 53.1985 82.4685 53.6296C82.4687 55.0069 82.4717 56.3842 82.4747 57.7615C82.4754 58.7188 82.4759 59.676 82.4763 60.6333C82.4776 62.8917 82.4806 65.1501 82.4845 67.4084C82.4888 69.9809 82.4909 72.5533 82.4928 75.1258C82.4968 80.4145 82.5035 85.7033 82.512 90.992C83.549 90.9954 84.5861 90.9979 85.6231 90.9998C86.0604 91.0014 86.0604 91.0014 86.5065 91.003C88.6987 91.0061 90.8599 90.9128 93.0409 90.6865C93.3773 90.6527 93.7138 90.6189 94.0604 90.5841C111.888 88.6936 128.522 79.9384 139.877 66.1787C149.567 54.1422 155.007 40.8947 157.503 25.803C157.602 25.2097 157.602 25.2097 157.702 24.6044C158.011 22.64 158.159 20.7917 158.148 18.8C153.299 18.7649 148.451 18.7383 143.602 18.7221C141.35 18.7143 139.097 18.7037 136.845 18.6865C134.665 18.67 132.486 18.6612 130.306 18.6573C129.481 18.6546 128.656 18.6492 127.83 18.641C113.8 18.5071 101.114 22.6784 90.916 32.336Z" fill="#ECA406"/>
<path d="M85.3113 98.0596C85.7997 98.0557 85.7997 98.0557 86.2979 98.0516C87.3598 98.045 88.4216 98.0427 89.4835 98.042C90.0221 98.0416 90.0221 98.0416 90.5717 98.0412C95.7232 98.0471 100.772 98.1117 105.814 99.264C106.223 99.3548 106.223 99.3548 106.639 99.4474C115.587 101.524 127.555 106.566 132.936 114.304C131.735 113.78 130.936 113.159 129.999 112.26C116.55 100.302 100.044 99.2715 82.512 98.888C82.512 122.091 82.512 145.294 82.512 169.2C107.346 169.2 132.18 169.2 157.766 169.2C157.64 167.711 157.514 166.222 157.384 164.688C157.636 164.812 157.888 164.936 158.148 165.064C158.595 166.56 158.591 168.026 158.53 169.576C157.864 170.231 156.998 169.999 156.111 170.002C155.669 170.001 155.669 170.001 155.219 170C154.753 170.001 154.753 170.001 154.278 170.002C153.229 170.003 152.181 170.002 151.132 170.001C150.384 170.001 149.636 170.002 148.887 170.003C146.849 170.004 144.81 170.004 142.772 170.003C140.643 170.002 138.515 170.002 136.387 170.003C132.812 170.004 129.237 170.003 125.662 170.001C121.522 169.999 117.383 170 113.243 170.002C109.696 170.003 106.149 170.004 102.602 170.003C100.48 170.002 98.3585 170.002 96.2369 170.003C94.2428 170.004 92.2487 170.004 90.2546 170.001C89.5205 170.001 88.7864 170.001 88.0523 170.002C87.0546 170.003 86.057 170.002 85.0593 170C84.6177 170.001 84.6177 170.001 84.1672 170.002C82.1736 169.995 82.1736 169.995 81.748 169.576C81.7098 168.659 81.6967 167.753 81.6995 166.835C81.6989 166.545 81.6983 166.255 81.6977 165.956C81.6962 164.976 81.6974 163.996 81.6986 163.016C81.6981 162.316 81.6974 161.617 81.6965 160.917C81.6948 159.012 81.6955 157.106 81.6967 155.2C81.6977 153.211 81.6968 151.221 81.6962 149.232C81.6955 145.89 81.6964 142.548 81.6982 139.206C81.7003 135.337 81.6996 131.468 81.6975 127.598C81.6958 124.282 81.6955 120.966 81.6965 117.651C81.6971 115.667 81.6972 113.684 81.6959 111.701C81.6948 109.837 81.6956 107.973 81.6978 106.109C81.6983 105.423 81.6982 104.737 81.6973 104.05C81.6963 103.118 81.6976 102.185 81.6995 101.253C81.6986 100.977 81.6978 100.702 81.6969 100.419C81.7082 97.6034 82.7703 98.073 85.3113 98.0596Z" fill="#ECA406"/>
<path d="M31.706 168.824C46.2029 168.824 60.6998 168.824 75.636 168.824C75.5099 169.196 75.3839 169.568 75.254 169.952C61.0092 169.952 46.7644 169.952 32.088 169.952C31.9619 169.58 31.8359 169.207 31.706 168.824Z" fill="#ECA406"/>
</svg>
